<?xml version="1.0" encoding="UTF-8" standalone="no"?>
<!DOCTYPE svg PUBLIC "-//W3C//DTD SVG 1.1//EN"
 "http://www.w3.org/Graphics/SVG/1.1/DTD/svg11.dtd">
<!-- Generated by graphviz version 2.43.0 (0)
 -->
<!-- Title: G Pages: 1 -->
<svg width="690pt" height="98pt"
 viewBox="0.00 0.00 690.00 98.00" xmlns="http://www.w3.org/2000/svg" xmlns:xlink="http://www.w3.org/1999/xlink">
<g id="graph0" class="graph" transform="scale(1 1) rotate(0) translate(4 94)">
<title>G</title>
<polygon fill="white" stroke="transparent" points="-4,4 -4,-94 686,-94 686,4 -4,4"/>
<!-- data.aws_key_pair.my&#45;ec2&#45;key -->
<g id="node1" class="node">
<title>data.aws_key_pair.my&#45;ec2&#45;key</title>
<polygon fill="none" stroke="black" points="425,-90 198,-90 198,-54 425,-54 425,-90"/>
<text text-anchor="middle" x="311.5" y="-68.3" font-family="sans-serif" font-size="14.00">data.aws_key_pair.my&#45;ec2&#45;key</text>
</g>
<!-- aws_instance.public_instance -->
<g id="node2" class="node">
<title>aws_instance.public_instance</title>
<polygon fill="none" stroke="black" points="682,-90 461,-90 461,-54 682,-54 682,-90"/>
<text text-anchor="middle" x="571.5" y="-68.3" font-family="sans-serif" font-size="14.00">aws_instance.public_instance</text>
</g>
<!-- aws_instance.public_instance&#45;&gt;data.aws_key_pair.my&#45;ec2&#45;key -->
<g id="edge1" class="edge">
<title>aws_instance.public_instance&#45;&gt;data.aws_key_pair.my&#45;ec2&#45;key</title>
<path fill="none" stroke="black" d="M460.71,-72C452.23,-72 443.64,-72 435.09,-72"/>
<polygon fill="black" stroke="black" points="435.07,-68.5 425.07,-72 435.07,-75.5 435.07,-68.5"/>
</g>
<!-- aws_subnet.public_subnet -->
<g id="node4" class="node">
<title>aws_subnet.public_subnet</title>
<polygon fill="none" stroke="black" points="411.5,-36 211.5,-36 211.5,0 411.5,0 411.5,-36"/>
<text text-anchor="middle" x="311.5" y="-14.3" font-family="sans-serif" font-size="14.00">aws_subnet.public_subnet</text>
</g>
<!-- aws_instance.public_instance&#45;&gt;aws_subnet.public_subnet -->
<g id="edge2" class="edge">
<title>aws_instance.public_instance&#45;&gt;aws_subnet.public_subnet</title>
<path fill="none" stroke="black" d="M484.23,-53.94C459.92,-48.86 433.32,-43.29 408.48,-38.09"/>
<polygon fill="black" stroke="black" points="409.19,-34.66 398.69,-36.04 407.76,-41.51 409.19,-34.66"/>
</g>
<!-- aws_subnet.private_subnet -->
<g id="node3" class="node">
<title>aws_subnet.private_subnet</title>
<polygon fill="none" stroke="black" points="674.5,-36 468.5,-36 468.5,0 674.5,0 674.5,-36"/>
<text text-anchor="middle" x="571.5" y="-14.3" font-family="sans-serif" font-size="14.00">aws_subnet.private_subnet</text>
</g>
<!-- aws_subnet.private_subnet&#45;&gt;aws_subnet.public_subnet -->
<g id="edge3" class="edge">
<title>aws_subnet.private_subnet&#45;&gt;aws_subnet.public_subnet</title>
<path fill="none" stroke="black" d="M468.16,-18C452.93,-18 437.17,-18 421.8,-18"/>
<polygon fill="black" stroke="black" points="421.77,-14.5 411.77,-18 421.77,-21.5 421.77,-14.5"/>
</g>
<!-- aws_vpc.vpc_virginia -->
<g id="node5" class="node">
<title>aws_vpc.vpc_virginia</title>
<polygon fill="none" stroke="black" points="162,-36 0,-36 0,0 162,0 162,-36"/>
<text text-anchor="middle" x="81" y="-14.3" font-family="sans-serif" font-size="14.00">aws_vpc.vpc_virginia</text>
</g>
<!-- aws_subnet.public_subnet&#45;&gt;aws_vpc.vpc_virginia -->
<g id="edge4" class="edge">
<title>aws_subnet.public_subnet&#45;&gt;aws_vpc.vpc_virginia</title>
<path fill="none" stroke="black" d="M211.27,-18C198.35,-18 185.16,-18 172.39,-18"/>
<polygon fill="black" stroke="black" points="172.25,-14.5 162.25,-18 172.25,-21.5 172.25,-14.5"/>
</g>
</g>
</svg>
